Coordinates
version=1
nRows=20
nColumns=38
inDegrees=no

Units are S.I. units (second, meters, Newtons, ...)
If the header above contains a line with 'inDegrees', this indicates whether rotational values are in degrees (yes) or radians (no).

endheader
time	pelvis_tilt	pelvis_list	pelvis_rotation	pelvis_tx	pelvis_ty	pelvis_tz	hip_flexion_r	hip_adduction_r	hip_rotation_r	knee_angle_r	ankle_angle_r	subtalar_angle_r	mtp_angle_r	hip_flexion_l	hip_adduction_l	hip_rotation_l	knee_angle_l	ankle_angle_l	subtalar_angle_l	mtp_angle_l	lumbar_extension	lumbar_bending	lumbar_rotation	arm_flex_r	arm_add_r	arm_rot_r	elbow_flex_r	pro_sup_r	wrist_flex_r	wrist_dev_r	arm_flex_l	arm_add_l	arm_rot_l	elbow_flex_l	pro_sup_l	wrist_flex_l	wrist_dev_l
0.43	-2.83714	1.50682	1.36819	0.688845	1.02715	1.01527	0.548226	-0.00896529	-0.126363	0.340087	-0.133261	0	0	-0.171084	-0.00727438	-0.105046	0.24301	-0.138619	0	0	-0.248047	0.0438546	-0.116435	0.208244	-0.428908	1.5708	0.538167	0.233696	0	0	-0.111742	-0.335288	0.433762	0.590815	1.11359	0	0
0.44	-2.80783	1.50728	1.34361	0.688803	1.0164	1.01414	0.54659	-0.00836108	-0.122114	0.340694	-0.13035	0	0	-0.184748	-0.0116128	-0.104182	0.239967	-0.1386	0	0	-0.249431	0.047083	-0.118805	0.206181	-0.428423	1.5708	0.536803	0.231353	0	0	-0.111316	-0.334244	0.434317	0.588853	1.11438	0	0
0.45	-2.77866	1.50842	1.31857	0.688636	1.00553	1.01311	0.544769	-0.00735008	-0.115526	0.34914	-0.126857	0	0	-0.199214	-0.0156847	-0.103516	0.23678	-0.139195	0	0	-0.251679	0.0498871	-0.121196	0.204478	-0.427626	1.5708	0.535239	0.229434	0	0	-0.111136	-0.333274	0.434458	0.58658	1.11545	0	0
0.46	-2.79875	1.50482	1.3437	0.688281	0.994295	1.01187	0.550631	-0.00848313	-0.109247	0.3696	-0.118123	0	0	-0.208578	-0.017717	-0.0971173	0.231298	-0.142884	0	0	-0.268133	0.0504513	-0.0773845	-0.0300796	-0.362578	0.657993	0.526019	1.08225	0	0	-0.0703892	-0.344362	0.512156	0.58505	1.08931	0	0
0.47	-2.75182	1.50932	1.30112	0.688216	0.983459	1.01083	0.547592	-0.00766888	-0.106029	0.394558	-0.117648	0	0	-0.225393	-0.0223437	-0.0982963	0.230989	-0.143243	0	0	-0.256809	0.0534874	-0.124187	0.167896	-0.429063	1.45154	0.534135	0.340494	0	0	-0.113463	-0.328292	0.414716	0.584397	1.13988	0	0
0.48	-2.75367	1.50806	1.30808	0.687963	0.97213	1.00935	0.55132	-0.00793521	-0.103192	0.425403	-0.120074	0	0	-0.234684	-0.0257809	-0.0976233	0.232349	-0.144229	0	0	-0.255779	0.0549762	-0.128718	0.158321	-0.4298	1.42382	0.536666	0.36211	0	0	-0.116084	-0.328275	0.413725	0.5842	1.14085	0	0
0.49	-2.7646	1.50548	1.32439	0.687552	0.960456	1.00767	0.555484	-0.00698809	-0.100434	0.458351	-0.124099	0	0	-0.241873	-0.0295716	-0.0974084	0.235382	-0.145429	0	0	-0.25637	0.0561694	-0.125491	0.107883	-0.428518	1.25192	0.541183	0.507865	0	0	-0.113505	-0.32875	0.417685	0.583832	1.14521	0	0
0.5	-2.76821	1.50326	1.33347	0.686956	0.948626	1.00614	0.558733	-0.00461809	-0.0987976	0.488667	-0.131101	0	0	-0.248457	-0.0343473	-0.0968498	0.239549	-0.14678	0	0	-0.256748	0.05768	-0.121716	0.0540765	-0.418024	1.06681	0.543992	0.670996	0	0	-0.110322	-0.329512	0.42399	0.582242	1.14759	0	0
0.51	-2.76216	1.49925	1.33326	0.686201	0.936492	1.00458	0.562513	-0.00189596	-0.0976071	0.508583	-0.140357	0	0	-0.254152	-0.0405231	-0.0957414	0.24486	-0.148546	0	0	-0.259305	0.0605231	-0.111396	-0.0260446	-0.379893	0.754634	0.542026	0.970309	0	0	-0.0966739	-0.33739	0.467398	0.578691	1.12085	0	0
0.52	-2.7155	1.4957	1.29143	0.685295	0.924425	1.00356	0.564751	0.00371642	-0.0949924	0.518168	-0.153636	0	0	-0.259319	-0.0497471	-0.0951101	0.252968	-0.150965	0	0	-0.258376	0.0661475	-0.110173	-0.0533209	-0.35857	0.636552	0.538554	1.09099	0	0	-0.0927115	-0.338308	0.482514	0.571956	1.11176	0	0
0.53	-2.6049	1.49561	1.18265	0.684262	0.912514	1.00326	0.560375	0.0154003	-0.089321	0.524856	-0.165383	0	0	-0.269495	-0.0620394	-0.0979092	0.262766	-0.154421	0	0	-0.249081	0.0738472	-0.14406	0.0933853	-0.423704	1.23811	0.539112	0.520545	0	0	-0.129156	-0.315794	0.373781	0.564867	1.18348	0	0
0.54	-2.50157	1.49319	1.08011	0.682956	0.900574	1.00327	0.557607	0.0292561	-0.0819978	0.538194	-0.176168	0	0	-0.276477	-0.074338	-0.0988331	0.275488	-0.158529	0	0	-0.253015	0.0828742	-0.142768	0.0880907	-0.421897	1.22046	0.537042	0.537407	0	0	-0.129935	-0.313651	0.371152	0.560955	1.18554	0	0
0.55	-2.41614	1.4894	0.993829	0.681475	0.888669	1.00339	0.55814	0.0434424	-0.0736763	0.561774	-0.185624	0	0	-0.280308	-0.085841	-0.0998749	0.292592	-0.163316	0	0	-0.260256	0.0912696	-0.132635	0.0445553	-0.410201	1.05456	0.534911	0.690534	0	0	-0.126973	-0.310205	0.363708	0.558701	1.19881	0	0
0.56	-2.35108	1.48598	0.92517	0.679792	0.876748	1.0036	0.559776	0.0570127	-0.0588254	0.589093	-0.189661	0	0	-0.282759	-0.0948598	-0.10127	0.313062	-0.168256	0	0	-0.267409	0.0976249	-0.121091	0.00619896	-0.394039	0.898478	0.533884	0.838728	0	0	-0.120893	-0.316521	0.394994	0.559247	1.17229	0	0
0.57	-2.29944	1.48361	0.868345	0.678023	0.864673	1.00393	0.559403	0.0697693	-0.036992	0.614151	-0.194352	0	0	-0.283895	-0.101858	-0.10393	0.338029	-0.174415	0	0	-0.270871	0.101416	-0.119723	0.0122581	-0.395038	0.918301	0.532463	0.82463	0	0	-0.127224	-0.314221	0.382491	0.558934	1.17744	0	0
0.58	-2.27417	1.4815	0.838224	0.676137	0.85235	1.00434	0.557241	0.081176	-0.0142721	0.634831	-0.196161	0	0	-0.281009	-0.107088	-0.106205	0.368365	-0.182716	0	0	-0.277182	0.1031	-0.107295	-0.0401014	-0.356005	0.672834	0.524337	1.08002	0	0	-0.123534	-0.315533	0.390593	0.556771	1.17435	0	0
0.59	-2.22671	1.48199	0.78819	0.674453	0.840076	1.00513	0.548803	0.0901457	-0.00245417	0.650325	-0.189853	0	0	-0.278614	-0.112451	-0.106411	0.403224	-0.192429	0	0	-0.280525	0.104217	-0.11178	-0.0208907	-0.367135	0.761435	0.522609	0.99473	0	0	-0.133062	-0.308797	0.356451	0.553181	1.20016	0	0
0.6	-2.18362	1.48254	0.744619	0.672793	0.827769	1.00603	0.538888	0.0959578	-0.0051328	0.661012	-0.18236	0	0	-0.272231	-0.117793	-0.103482	0.443915	-0.202668	0	0	-0.28496	0.105401	-0.112039	-0.0257029	-0.36148	0.740628	0.521099	1.01867	0	0	-0.133818	-0.310615	0.362354	0.549216	1.1923	0	0
0.61	-2.15518	1.48234	0.714234	0.670962	0.815501	1.00686	0.5295	0.100988	-0.016398	0.667541	-0.177011	0	0	-0.26076	-0.121842	-0.100181	0.490927	-0.212503	0	0	-0.287177	0.105586	-0.11175	-0.0271665	-0.359821	0.740167	0.52178	1.02006	0	0	-0.136557	-0.310409	0.358458	0.54531	1.19352	0	0
0.62	-2.14813	1.48052	0.704079	0.669063	0.803419	1.00739	0.522844	0.10597	-0.031076	0.673444	-0.165445	0	0	-0.242784	-0.12503	-0.0955278	0.544548	-0.224489	0	0	-0.283195	0.105186	-0.117973	0.00468868	-0.381089	0.894647	0.52662	0.866242	0	0	-0.147478	-0.306293	0.332918	0.542828	1.20899	0	0
